<?xml version="1.0" encoding="UTF-8" standalone="no"?>
<svg width="218px" height="60px" viewBox="0 0 218 60" version="1.1" xmlns="http://www.w3.org/2000/svg" xmlns:xlink="http://www.w3.org/1999/xlink">
    <!-- Generator: Sketch 3.7.2 (28276) - http://www.bohemiancoding.com/sketch -->
    <title>ciudadela-blanco</title>
    <desc>Created with Sketch.</desc>
    <defs>
        <polygon id="path-1" points="0 59.527 217.324 59.527 217.324 0 0 0"></polygon>
    </defs>
    <g id="Page-1" stroke="none" stroke-width="1" fill="none" fill-rule="evenodd">
        <g id="ciudadela-gris" transform="translate(-9.000000, -218.000000)">
            <g id="ciudadela-blanco" transform="translate(9.000000, 218.000000)">
                <path d="M76.7109,38.1193 C76.7109,41.8533 73.6989,45.1193 69.8399,45.1193 C66.5289,45.1193 62.7149,43.5063 62.7149,37.9923 L62.7149,21.3653 C62.7149,17.4243 65.5589,14.4103 69.7559,14.4103 C73.7419,14.4103 76.7109,17.4243 76.7109,21.6213 L76.7109,23.3163 L72.3869,23.3163 L72.3869,21.8773 C72.3869,20.1803 71.3649,18.7403 69.7129,18.7403 C67.5509,18.7403 67.0449,20.2193 67.0449,22.2583 L67.0449,37.6953 C67.0449,39.4353 67.7169,40.7913 69.6699,40.7913 C70.8589,40.7913 72.3869,40.1093 72.3869,37.7363 L72.3869,36.2543 L76.7109,36.2543 L76.7109,38.1193 L76.7109,38.1193 Z" id="Fill-1" fill="#FFFFFF"></path>
                <mask id="mask-2" fill="white">
                    <use xlink:href="#path-1"></use>
                </mask>
                <g id="Clip-4"></g>
                <polygon id="Fill-3" fill="#FFFFFF" mask="url(#mask-2)" points="80.363 44.861 84.689 44.861 84.689 14.664 80.363 14.664"></polygon>
                <path d="M102.8867,38.0802 C102.8867,42.0232 99.7457,45.1172 95.8867,45.1172 C92.0317,45.1172 88.8907,42.0232 88.8907,38.0802 L88.8907,14.6682 L93.2147,14.6682 L93.2147,37.6542 C93.2147,39.7772 94.3577,40.7912 95.8867,40.7912 C97.4117,40.7912 98.5607,39.7772 98.5607,37.6542 L98.5607,14.6682 L102.8867,14.6682 L102.8867,38.0802 Z" id="Fill-5" fill="#FFFFFF" mask="url(#mask-2)"></path>
                <path d="M111.289,40.7911 L113.279,40.7911 C115.697,40.7911 116.629,39.6041 116.629,37.0181 L116.629,22.4711 C116.629,20.0961 115.822,18.7401 113.279,18.7401 L111.289,18.7401 L111.289,40.7911 Z M106.959,14.6681 L113.365,14.6681 C118.244,14.6681 120.955,17.5921 120.955,22.4711 L120.955,36.5941 C120.955,42.1891 118.072,44.8631 112.982,44.8631 L106.959,44.8631 L106.959,14.6681 Z" id="Fill-6" fill="#FFFFFF" mask="url(#mask-2)"></path>
                <path d="M131.1367,23.3595 L131.0507,23.3595 L128.9337,34.2985 L133.2577,34.2985 L131.1367,23.3595 Z M129.3147,14.6685 L132.9217,14.6685 L139.6657,44.8615 L135.3337,44.8615 L134.0647,38.3715 L128.1697,38.3715 L126.9007,44.8615 L122.5707,44.8615 L129.3147,14.6685 Z" id="Fill-7" fill="#FFFFFF" mask="url(#mask-2)"></path>
                <path d="M146.1152,40.7911 L148.1072,40.7911 C150.5252,40.7911 151.4612,39.6041 151.4612,37.0181 L151.4612,22.4711 C151.4612,20.0961 150.6482,18.7401 148.1072,18.7401 L146.1152,18.7401 L146.1152,40.7911 Z M141.7852,14.6681 L148.1892,14.6681 C153.0702,14.6681 155.7872,17.5921 155.7872,22.4711 L155.7872,36.5941 C155.7872,42.1891 152.8982,44.8631 147.8102,44.8631 L141.7852,44.8631 L141.7852,14.6681 Z" id="Fill-8" fill="#FFFFFF" mask="url(#mask-2)"></path>
                <polygon id="Fill-9" fill="#FFFFFF" mask="url(#mask-2)" points="159.8554 14.6681 172.7504 14.6681 172.7504 18.7401 164.1834 18.7401 164.1834 27.6041 171.6464 27.6041 171.6464 31.6721 164.1834 31.6721 164.1834 40.5391 172.7504 40.5391 172.7504 44.8611 159.8554 44.8611"></polygon>
                <polygon id="Fill-10" fill="#FFFFFF" mask="url(#mask-2)" points="175.5566 14.6681 179.8766 14.6681 179.8766 40.5391 188.4456 40.5391 188.4456 44.8611 175.5566 44.8611"></polygon>
                <path d="M197.8671,23.3595 L197.7811,23.3595 L195.6621,34.2985 L199.9861,34.2985 L197.8671,23.3595 Z M196.0391,14.6685 L199.6481,14.6685 L206.3881,44.8615 L202.0661,44.8615 L200.7891,38.3715 L194.8941,38.3715 L193.6211,44.8615 L189.3011,44.8615 L196.0391,14.6685 Z" id="Fill-11" fill="#FFFFFF" mask="url(#mask-2)"></path>
                <path d="M2.105,57.426 L215.218,57.426 L215.218,2.106 L2.105,2.106 L2.105,57.426 Z M0,59.527 L217.324,59.527 L217.324,0 L0,0 L0,59.527 Z" id="Fill-12" fill="#FFFFFF" mask="url(#mask-2)"></path>
                <path d="M36.0351,41.5529 L33.5781,25.4889 L35.5311,23.2149 L35.5311,23.2069 C35.5491,23.2049 35.5491,23.1859 35.5661,23.1859 C35.5661,23.1779 35.5661,23.1739 35.5701,23.1579 C35.5701,23.1569 35.5821,23.1509 35.5821,23.1409 C35.5941,23.1309 35.5941,23.1269 35.5941,23.1169 C35.6071,23.1119 35.6111,23.1019 35.6111,23.1019 C35.6191,23.0799 35.6211,23.0689 35.6211,23.0489 C35.6351,23.0469 35.6351,23.0409 35.6351,23.0329 C35.6351,23.0239 35.6461,23.0179 35.6461,22.9979 L35.6461,22.9829 C35.6541,22.9669 35.6641,22.9589 35.6641,22.9439 L35.6641,22.9359 L35.6641,22.8789 L35.6641,16.7849 C35.6641,16.4629 35.3531,16.2069 34.9691,16.2069 L31.9221,16.2069 C31.5391,16.2069 31.2281,16.4629 31.2281,16.7849 L31.2281,19.5819 L28.5291,19.5819 L28.5291,16.7849 C28.5291,16.4629 28.2191,16.2069 27.8341,16.2069 L25.3591,16.2069 C24.9591,16.2069 24.6561,16.4629 24.6561,16.7849 L24.6561,19.5819 L21.9611,19.5819 L21.9611,16.7849 C21.9611,16.4629 21.6501,16.2069 21.2691,16.2069 L18.2151,16.2069 C17.8401,16.2069 17.5231,16.4629 17.5231,16.7849 L17.5231,22.8789 C17.5231,22.8989 17.5231,22.9099 17.5291,22.9359 C17.5291,22.9379 17.5311,22.9379 17.5311,22.9439 C17.5311,22.9589 17.5391,22.9669 17.5391,22.9829 C17.5451,22.9919 17.5451,22.9919 17.5451,22.9979 L17.5451,23.0329 C17.5581,23.0409 17.5581,23.0469 17.5581,23.0489 C17.5681,23.0689 17.5681,23.0799 17.5761,23.1019 C17.5761,23.1019 17.5841,23.1119 17.5841,23.1169 C17.5941,23.1269 17.5941,23.1309 17.6071,23.1409 C17.6151,23.1509 17.6151,23.1569 17.6151,23.1579 C17.6231,23.1739 17.6331,23.1779 17.6371,23.1859 C17.6371,23.1859 17.6461,23.2049 17.6461,23.2069 L17.6541,23.2149 L19.6111,25.4889 L16.6761,41.5529 L36.0351,41.5529 Z" id="Fill-13" fill="#FFFFFF" mask="url(#mask-2)"></path>
                <polygon id="Fill-14" fill="#FFFFFF" mask="url(#mask-2)" points="49.293 58.477 51.398 58.477 51.398 1.053 49.293 1.053"></polygon>
            </g>
        </g>
    </g>
</svg>