<?xml version="1.0" encoding="UTF-8" standalone="no"?>
<svg width="261px" height="72px" viewBox="0 0 261 72" version="1.1" xmlns="http://www.w3.org/2000/svg" xmlns:xlink="http://www.w3.org/1999/xlink">
    <!-- Generator: Sketch 39.1 (31720) - http://www.bohemiancoding.com/sketch -->
    <title>Page 1</title>
    <desc>Created with Sketch.</desc>
    <defs>
        <polygon id="path-1" points="0 71.491 261 71.491 261 0 0 0"></polygon>
    </defs>
    <g id="Page-1" stroke="none" stroke-width="1" fill="none" fill-rule="evenodd">
        <g>
            <path d="M92.1289,45.7798 C92.1289,50.2618 88.5139,54.1868 83.8769,54.1868 C79.9019,54.1868 75.3179,52.2478 75.3179,45.6268 L75.3179,25.6598 C75.3179,20.9248 78.7339,17.3068 83.7769,17.3068 C88.5609,17.3068 92.1289,20.9248 92.1289,25.9658 L92.1289,28.0018 L86.9339,28.0018 L86.9339,26.2718 C86.9339,24.2338 85.7089,22.5048 83.7229,22.5048 C81.1249,22.5048 80.5179,24.2818 80.5179,26.7318 L80.5179,45.2708 C80.5179,47.3578 81.3259,48.9888 83.6719,48.9888 C85.0999,48.9888 86.9339,48.1718 86.9339,45.3198 L86.9339,43.5388 L92.1289,43.5388 L92.1289,45.7798 L92.1289,45.7798 Z" id="Fill-1" fill="#FFFFFF"></path>
            <mask id="mask-2" fill="white">
                <use xlink:href="#path-1"></use>
            </mask>
            <g id="Clip-4"></g>
            <polygon id="Fill-3" fill="#FFFFFF" mask="url(#mask-2)" points="96.516 53.876 101.709 53.876 101.709 17.611 96.516 17.611"></polygon>
            <path d="M123.5644,45.731 C123.5644,50.469 119.7934,54.183 115.1564,54.183 C110.5254,54.183 106.7534,50.469 106.7534,45.731 L106.7534,17.615 L111.9494,17.615 L111.9494,45.221 C111.9494,47.77 113.3224,48.989 115.1564,48.989 C116.9904,48.989 118.3694,47.77 118.3694,45.221 L118.3694,17.615 L123.5644,17.615 L123.5644,45.731 Z" id="Fill-5" fill="#FFFFFF" mask="url(#mask-2)"></path>
            <path d="M133.6543,48.9888 L136.0453,48.9888 C138.9513,48.9888 140.0683,47.5618 140.0683,44.4568 L140.0683,26.9848 C140.0683,24.1338 139.1013,22.5048 136.0453,22.5048 L133.6543,22.5048 L133.6543,48.9888 Z M128.4553,17.6148 L136.1503,17.6148 C142.0063,17.6148 145.2633,21.1258 145.2633,26.9848 L145.2633,43.9478 C145.2633,50.6678 141.8003,53.8788 135.6893,53.8788 L128.4553,53.8788 L128.4553,17.6148 Z" id="Fill-6" fill="#FFFFFF" mask="url(#mask-2)"></path>
            <path d="M157.4922,28.0543 L157.3882,28.0543 L154.8462,41.1933 L160.0412,41.1933 L157.4922,28.0543 Z M155.3062,17.6153 L159.6352,17.6153 L167.7342,53.8753 L162.5352,53.8753 L161.0082,46.0833 L153.9282,46.0833 L152.4022,53.8753 L147.2032,53.8753 L155.3062,17.6153 Z" id="Fill-7" fill="#FFFFFF" mask="url(#mask-2)"></path>
            <path d="M175.4804,48.9888 L177.8734,48.9888 C180.7754,48.9888 181.8984,47.5618 181.8984,44.4568 L181.8984,26.9848 C181.8984,24.1338 180.9254,22.5048 177.8734,22.5048 L175.4804,22.5048 L175.4804,48.9888 Z M170.2834,17.6148 L177.9724,17.6148 C183.8324,17.6148 187.0954,21.1258 187.0954,26.9848 L187.0954,43.9478 C187.0954,50.6678 183.6284,53.8788 177.5194,53.8788 L170.2834,53.8788 L170.2834,17.6148 Z" id="Fill-8" fill="#FFFFFF" mask="url(#mask-2)"></path>
            <polygon id="Fill-9" fill="#FFFFFF" mask="url(#mask-2)" points="191.9863 17.6148 207.4683 17.6148 207.4683 22.5048 197.1813 22.5048 197.1813 33.1498 206.1443 33.1498 206.1443 38.0368 197.1813 38.0368 197.1813 48.6838 207.4683 48.6838 207.4683 53.8758 191.9863 53.8758"></polygon>
            <polygon id="Fill-10" fill="#FFFFFF" mask="url(#mask-2)" points="210.8379 17.6148 216.0289 17.6148 216.0289 48.6838 226.3169 48.6838 226.3169 53.8758 210.8379 53.8758"></polygon>
            <path d="M237.6328,28.0543 L237.5278,28.0543 L234.9848,41.1933 L240.1798,41.1933 L237.6328,28.0543 Z M235.4398,17.6153 L239.7718,17.6153 L247.8688,53.8753 L242.6758,53.8753 L241.1428,46.0833 L234.0628,46.0833 L232.5348,53.8753 L227.3438,53.8753 L235.4398,17.6153 Z" id="Fill-11" fill="#FFFFFF" mask="url(#mask-2)"></path>
            <path d="M2.527,68.963 L258.47,68.963 L258.47,2.527 L2.527,2.527 L2.527,68.963 Z M0,71.491 L261,71.491 L261,0 L0,0 L0,71.491 Z" id="Fill-12" fill="#FFFFFF" mask="url(#mask-2)"></path>
            <path d="M43.2793,49.9039 L40.3263,30.6089 L42.6743,27.8819 L42.6743,27.8709 C42.6913,27.8679 42.6913,27.8459 42.7113,27.8459 C42.7113,27.8369 42.7113,27.8309 42.7203,27.8109 C42.7203,27.8069 42.7363,27.8019 42.7363,27.7909 C42.7463,27.7799 42.7463,27.7749 42.7463,27.7619 C42.7633,27.7559 42.7653,27.7429 42.7653,27.7429 C42.7753,27.7179 42.7813,27.7029 42.7813,27.6809 C42.7993,27.6799 42.7993,27.6709 42.7993,27.6629 C42.7993,27.6499 42.8103,27.6429 42.8103,27.6189 L42.8103,27.5989 C42.8203,27.5829 42.8303,27.5729 42.8303,27.5549 L42.8303,27.5439 L42.8303,27.4759 L42.8303,20.1599 C42.8303,19.7709 42.4573,19.4649 41.9963,19.4649 L38.3383,19.4649 C37.8793,19.4649 37.5063,19.7709 37.5063,20.1599 L37.5063,23.5179 L34.2653,23.5179 L34.2653,20.1599 C34.2653,19.7709 33.8883,19.4649 33.4273,19.4649 L30.4553,19.4649 C29.9763,19.4649 29.6093,19.7709 29.6093,20.1599 L29.6093,23.5179 L26.3753,23.5179 L26.3753,20.1599 C26.3753,19.7709 26.0023,19.4649 25.5453,19.4649 L21.8753,19.4649 C21.4243,19.4649 21.0453,19.7709 21.0453,20.1599 L21.0453,27.4759 C21.0453,27.5009 21.0453,27.5139 21.0503,27.5439 C21.0503,27.5459 21.0543,27.5459 21.0543,27.5549 C21.0543,27.5729 21.0623,27.5829 21.0623,27.5989 C21.0703,27.6119 21.0703,27.6119 21.0703,27.6189 C21.0703,27.6429 21.0703,27.6499 21.0743,27.6629 C21.0863,27.6709 21.0863,27.6799 21.0863,27.6799 C21.0973,27.7029 21.0973,27.7179 21.1093,27.7429 C21.1093,27.7429 21.1193,27.7559 21.1193,27.7619 C21.1313,27.7749 21.1313,27.7799 21.1443,27.7909 C21.1543,27.8019 21.1543,27.8069 21.1543,27.8109 C21.1663,27.8309 21.1753,27.8369 21.1813,27.8459 C21.1813,27.8459 21.1913,27.8679 21.1913,27.8709 L21.2013,27.8819 L23.5503,30.6089 L20.0233,49.9039 L43.2793,49.9039 Z" id="Fill-13" fill="#FFFFFF" mask="url(#mask-2)"></path>
            <polygon id="Fill-14" fill="#FFFFFF" mask="url(#mask-2)" points="59.2 70.228 61.727 70.228 61.727 1.263 59.2 1.263"></polygon>
        </g>
    </g>
</svg>