<?xml version="1.0" encoding="UTF-8" standalone="no"?>
<svg width="16px" height="16px" viewBox="0 0 16 16" version="1.1" xmlns="http://www.w3.org/2000/svg" xmlns:xlink="http://www.w3.org/1999/xlink">
    <!-- Generator: Sketch 3.7.2 (28276) - http://www.bohemiancoding.com/sketch -->
    <title>menu</title>
    <desc>Created with Sketch.</desc>
    <defs></defs>
    <g id="Page-1" stroke="none" stroke-width="1" fill="none" fill-rule="evenodd">
        <g id="menu" fill="#FFFFFF">
            <path d="M4.43173112,6 L11.6876161,6 C11.9260546,6 12.1193472,5.77614237 12.1193472,5.5 C12.1193472,5.22385763 11.9260546,5 11.6876161,5 L4.43173112,5 C4.19329261,5 4,5.22385763 4,5.5 C4,5.77614237 4.19329261,6 4.43173112,6 L4.43173112,6 Z" id="Line"></path>
            <path d="M4.43173112,9 L11.6876161,9 C11.9260546,9 12.1193472,8.77614237 12.1193472,8.5 C12.1193472,8.22385763 11.9260546,8 11.6876161,8 L4.43173112,8 C4.19329261,8 4,8.22385763 4,8.5 C4,8.77614237 4.19329261,9 4.43173112,9 L4.43173112,9 Z" id="Line-Copy"></path>
            <path d="M4.43173112,12 L11.6876161,12 C11.9260546,12 12.1193472,11.7761424 12.1193472,11.5 C12.1193472,11.2238576 11.9260546,11 11.6876161,11 L4.43173112,11 C4.19329261,11 4,11.2238576 4,11.5 C4,11.7761424 4.19329261,12 4.43173112,12 L4.43173112,12 Z" id="Line-Copy-2"></path>
            <path d="M8,16 C12.418278,16 16,12.418278 16,8 C16,3.581722 12.418278,0 8,0 C3.581722,0 0,3.581722 0,8 C0,12.418278 3.581722,16 8,16 L8,16 Z M8,15.6862745 C3.75498781,15.6862745 0.31372549,12.2450122 0.31372549,8 C0.31372549,3.75498781 3.75498781,0.31372549 8,0.31372549 C12.2450122,0.31372549 15.6862745,3.75498781 15.6862745,8 C15.6862745,12.2450122 12.2450122,15.6862745 8,15.6862745 L8,15.6862745 Z" id="Oval-1" fill-opacity="0.298856431"></path>
        </g>
    </g>
</svg>