<?xml version="1.0" encoding="UTF-8" standalone="no"?>
<svg width="45px" height="45px" viewBox="0 0 45 45" version="1.1" xmlns="http://www.w3.org/2000/svg" xmlns:xlink="http://www.w3.org/1999/xlink">
    <!-- Generator: Sketch 39.1 (31720) - http://www.bohemiancoding.com/sketch -->
    <title>Group</title>
    <desc>Created with Sketch.</desc>
    <defs></defs>
    <g id="Page-1" stroke="none" stroke-width="1" fill="none" fill-rule="evenodd">
        <g id="close-circular-button-of-a-cross" fill="#000000">
            <g id="Group">
                <path d="M15.533,29.455 C15.341,29.455 15.149,29.382 15.003,29.235 C14.71,28.942 14.71,28.466 15.003,28.173 L28.174,15.002 C28.467,14.709 28.942,14.709 29.235,15.002 C29.528,15.295 29.528,15.77 29.235,16.063 L16.063,29.235 C15.917,29.382 15.725,29.455 15.533,29.455 L15.533,29.455 Z" id="Shape"></path>
                <path d="M28.704,29.455 C28.512,29.455 28.32,29.382 28.174,29.235 L15.002,16.064 C14.709,15.771 14.709,15.296 15.002,15.003 C15.295,14.71 15.77,14.71 16.063,15.003 L29.234,28.174 C29.527,28.467 29.527,28.943 29.234,29.236 C29.088,29.382 28.896,29.455 28.704,29.455 L28.704,29.455 Z" id="Shape"></path>
                <path d="M22.119,44.237 C9.922,44.237 0,34.315 0,22.12 C0,9.924 9.922,0.001 22.119,0.001 C34.316,0.001 44.238,9.923 44.238,22.12 C44.238,34.317 34.314,44.237 22.119,44.237 L22.119,44.237 Z M22.119,1.501 C10.75,1.501 1.5,10.751 1.5,22.12 C1.5,33.489 10.75,42.739 22.119,42.739 C33.488,42.739 42.738,33.489 42.738,22.12 C42.738,10.751 33.488,1.501 22.119,1.501 L22.119,1.501 Z" id="Shape"></path>
            </g>
        </g>
    </g>
</svg>