<?xml version="1.0" encoding="UTF-8" standalone="no"?>
<svg width="233px" height="103px" viewBox="0 0 233 103" version="1.1" xmlns="http://www.w3.org/2000/svg" xmlns:xlink="http://www.w3.org/1999/xlink">
    <!-- Generator: Sketch 3.7.2 (28276) - http://www.bohemiancoding.com/sketch -->
    <title>tom-blanco</title>
    <desc>Created with Sketch.</desc>
    <defs>
        <polygon id="path-1" points="0 103 232.705 103 232.705 0.346 0 0.346"></polygon>
    </defs>
    <g id="Page-1" stroke="none" stroke-width="1" fill="none" fill-rule="evenodd">
        <g id="tom" transform="translate(-28.000000, -14.000000)">
            <g id="tom-blanco" transform="translate(28.000000, 13.000000)">
                <polygon id="Fill-1" fill="#FFFFFF" points="0 1 0 15.097 22.721 15.097 22.721 82.192 38.21 82.192 38.21 15.097 232.705 15.097 232.705 1"></polygon>
                <g id="Group-21" transform="translate(0.000000, 0.654000)">
                    <path d="M93.417,35.4876 C86.875,35.4876 71.655,37.0706 71.655,51.7196 C71.655,66.1546 85.29,68.3086 93.417,68.3086 C101.545,68.3086 115.187,66.1546 115.187,51.7196 C115.187,37.0706 99.963,35.4876 93.417,35.4876 L93.417,35.4876 Z M93.417,80.3076 C66.321,80.3076 56.706,65.2076 56.706,52.2796 C56.706,34.2496 70.43,23.4836 93.417,23.4836 C116.401,23.4836 130.125,34.2496 130.125,52.2796 C130.125,65.2076 120.509,80.3076 93.417,80.3076 L93.417,80.3076 Z" id="Fill-2" fill="#FFFFFF"></path>
                    <polygon id="Fill-4" fill="#FFFFFF" points="220.8912 79.0535 207.2482 79.0535 207.2482 45.9505 191.0832 79.0535 179.7902 79.0535 163.5422 45.9245 163.5422 79.0535 149.9012 79.0535 149.9012 24.7435 168.1512 24.7435 185.4082 60.2265 202.9762 24.7435 220.8912 24.7435"></polygon>
                    <path d="M39.6187,101.3162 C42.5237,101.3162 43.6537,100.4252 43.6537,98.3872 C43.6537,96.2502 42.4757,95.5192 39.6187,95.5192 L37.8897,95.5192 L37.8897,101.3162 L39.6187,101.3162 Z M36.1857,94.0522 L40.3877,94.0522 C43.1497,94.0522 45.3607,95.2132 45.3607,98.3602 C45.3607,101.3402 43.3407,102.7822 40.4587,102.7822 L36.1857,102.7822 L36.1857,94.0522 Z" id="Fill-6" fill="#FFFFFF"></path>
                    <polygon id="Fill-8" fill="#FFFFFF" points="51.9244 94.0526 59.7494 94.0526 59.7494 95.5196 53.6314 95.5196 53.6314 97.5466 58.9014 97.5466 58.9014 99.0126 53.6314 99.0126 53.6314 101.3166 59.8964 101.3166 59.8964 102.7816 51.9244 102.7816"></polygon>
                    <path d="M84.8916,99.6698 C84.7276,100.6428 84.0306,102.9998 80.0196,102.9998 C77.2576,102.9998 75.0826,101.4618 75.0826,98.2788 C75.0826,95.7328 76.6786,93.8358 80.1516,93.8358 C84.0536,93.8358 84.6306,96.3668 84.7616,96.8368 L83.0576,96.8368 C82.9616,96.5398 82.2876,95.3008 80.2466,95.3008 C77.8326,95.3008 76.8246,96.6558 76.8246,98.4688 C76.8246,100.4758 78.2776,101.5338 80.1516,101.5338 C82.1446,101.5338 83.0226,100.3438 83.1896,99.6698 L84.8916,99.6698 Z" id="Fill-10" fill="#FFFFFF"></path>
                    <mask id="mask-2" fill="white">
                        <use xlink:href="#path-1"></use>
                    </mask>
                    <g id="Clip-13"></g>
                    <polygon id="Fill-12" fill="#FFFFFF" mask="url(#mask-2)" points="91.567 102.782 93.275 102.782 93.275 94.053 91.567 94.053"></polygon>
                    <path d="M109.7725,99.034 C109.7725,101.847 107.9805,103 105.1375,103 C102.2925,103 100.5015,101.847 100.5015,99.034 L100.5015,94.053 L102.2085,94.053 L102.2085,98.911 C102.2085,100.354 102.7215,101.534 105.1375,101.534 C107.5515,101.534 108.0685,100.354 108.0685,98.911 L108.0685,94.053 L109.7725,94.053 L109.7725,99.034 Z" id="Fill-14" fill="#FFFFFF" mask="url(#mask-2)"></path>
                    <path d="M120.3355,101.3162 C123.2425,101.3162 124.3745,100.4252 124.3745,98.3872 C124.3745,96.2502 123.1925,95.5192 120.3355,95.5192 L118.6095,95.5192 L118.6095,101.3162 L120.3355,101.3162 Z M116.9045,94.0522 L121.1045,94.0522 C123.8655,94.0522 126.0765,95.2132 126.0765,98.3602 C126.0765,101.3402 124.0595,102.7822 121.1775,102.7822 L116.9045,102.7822 L116.9045,94.0522 Z" id="Fill-15" fill="#FFFFFF" mask="url(#mask-2)"></path>
                    <path d="M138.8013,99.3094 L136.9753,95.4174 L135.1513,99.3094 L138.8013,99.3094 Z M136.0013,94.0524 L137.9503,94.0524 L142.1873,102.7824 L140.3873,102.7824 L139.4743,100.7724 L134.4433,100.7724 L133.5183,102.7824 L131.7053,102.7824 L136.0013,94.0524 Z" id="Fill-16" fill="#FFFFFF" mask="url(#mask-2)"></path>
                    <path d="M151.814,101.3162 C154.723,101.3162 155.852,100.4252 155.852,98.3872 C155.852,96.2502 154.672,95.5192 151.814,95.5192 L150.088,95.5192 L150.088,101.3162 L151.814,101.3162 Z M148.382,94.0522 L152.584,94.0522 C155.345,94.0522 157.557,95.2132 157.557,98.3602 C157.557,101.3402 155.54,102.7822 152.655,102.7822 L148.382,102.7822 L148.382,94.0522 Z" id="Fill-17" fill="#FFFFFF" mask="url(#mask-2)"></path>
                    <polygon id="Fill-18" fill="#FFFFFF" mask="url(#mask-2)" points="164.1236 94.0526 171.9486 94.0526 171.9486 95.5196 165.8276 95.5196 165.8276 97.5466 171.1016 97.5466 171.1016 99.0126 165.8276 99.0126 165.8276 101.3166 172.0926 101.3166 172.0926 102.7816 164.1236 102.7816"></polygon>
                    <polygon id="Fill-19" fill="#FFFFFF" mask="url(#mask-2)" points="178.5259 94.0526 180.2299 94.0526 180.2299 101.2656 186.5589 101.2656 186.5589 102.7816 178.5259 102.7816"></polygon>
                    <path d="M199.0894,99.3094 L197.2664,95.4174 L195.4414,99.3094 L199.0894,99.3094 Z M196.2954,94.0524 L198.2384,94.0524 L202.4774,102.7824 L200.6744,102.7824 L199.7624,100.7724 L194.7314,100.7724 L193.8094,102.7824 L191.9944,102.7824 L196.2954,94.0524 Z" id="Fill-20" fill="#FFFFFF" mask="url(#mask-2)"></path>
                </g>
            </g>
        </g>
    </g>
</svg>